<mxfile host="app.diagrams.net" modified="2023-08-21T19:04:28.086Z" agent="Mozilla/5.0 (Macintosh; Intel Mac OS X 10_15_7) AppleWebKit/605.1.15 (KHTML, like Gecko) Version/15.6.1 Safari/605.1.15" version="21.6.8" etag="7M-H265n8R5IT0Iihjin" type="github">
  <diagram name="PÃ¡gina-1" id="2maJQ5idkwLIJ3gn61Aj">
    <mxGraphModel>
      <root>
        <mxCell id="0" />
        <mxCell id="1" parent="0" />
      </root>
    </mxGraphModel>
  </diagram>
</mxfile>
